<svg fill="currentColor" version="1.1" id="Capa_1" xmlns="http://www.w3.org/2000/svg" xmlns:xlink="http://www.w3.org/1999/xlink" viewBox="0 0 97.012 97.012" xml:space="preserve"><g id="SVGRepo_bgCarrier" stroke-width="0"></g><g id="SVGRepo_tracerCarrier" stroke-linecap="round" stroke-linejoin="round"></g><g id="SVGRepo_iconCarrier"> <g> <path d="M76.235,2.892c-0.787-0.318-2.039-0.977-3.531-1.375c-1.489-0.421-3.508-1.123-5.562-1.297 c-2.077-0.218-4.425-0.281-6.994-0.158c-2.502,0.202-5.048,0.736-7.772,1.439c-2.726,0.705-5.22,1.875-7.877,3.155 c-2.599,1.328-4.966,2.974-7.337,4.779c-2.243,1.858-4.366,3.915-6.312,6.102c-1.812,2.245-3.616,4.558-5.003,7.025 c-1.43,2.451-2.664,4.973-3.557,7.551c-1.91,5.106-2.671,10.366-2.751,15.049c0.007,2.372,0.147,4.576,0.441,6.605 c0.257,2.009,0.762,3.87,1.15,5.369c0.158,0.708,0.378,1.379,0.596,1.975c0.381-0.801,0.799-1.653,1.261-2.577 c2.307-4.575,5.667-10.528,9.596-16.103c1.959-2.794,4.103-5.446,6.199-7.847c1.107-1.153,2.18-2.264,3.192-3.314 c1.085-0.979,2.112-1.903,3.055-2.754c1.016-0.767,1.952-1.465,2.778-2.089c0.796-0.659,1.628-1.041,2.25-1.436 c1.271-0.754,1.995-1.181,1.995-1.181s-0.691,0.486-1.896,1.332c-0.589,0.448-1.374,0.883-2.113,1.598 c-0.765,0.676-1.627,1.436-2.57,2.267c-0.864,0.914-1.8,1.899-2.792,2.943c-0.907,1.107-1.867,2.278-2.863,3.491 c-1.872,2.519-3.756,5.274-5.45,8.155c-3.412,5.739-6.223,11.804-8.116,16.428c-0.291,0.715-0.556,1.379-0.802,2.012 c-7.348,17.016-3.859,35.946-3.655,36.977l3.438-0.671c-0.048-0.242-3.631-19.653,4.049-36.151 c1.121-0.362,2.322-0.743,3.545-1.242c1.802-0.688,3.726-1.503,5.667-2.43c1.969-0.917,3.889-1.992,5.859-3.121 c1.962-1.122,3.822-2.409,5.67-3.733c1.797-1.379,3.58-2.767,5.195-4.309c1.602-1.581,3.217-3.063,4.613-4.779 c2.867-3.29,5.317-6.807,7.31-10.521c1.037-1.749,1.899-3.783,2.744-5.623c0.855-1.828,1.581-3.852,2.3-5.71 c0.726-1.826,1.403-3.672,1.999-5.474c0.649-1.853,1.211-3.468,1.684-4.796c0.533-1.322,0.876-2.702,1.184-3.516 c0.277-0.917,0.425-1.401,0.425-1.401S77.043,3.258,76.235,2.892z"></path> </g> </g></svg>