<?xml version="1.0" encoding="UTF-8"?><svg id="Layer_1" xmlns="http://www.w3.org/2000/svg" xmlns:xlink="http://www.w3.org/1999/xlink" viewBox="0 0 120.24 56.03"><defs><style>.cls-1{fill:url(#linear-gradient);}</style><linearGradient id="linear-gradient" x1="0" y1="29.485" x2="119.223" y2="29.485" gradientTransform="translate(0 57.5) scale(1 -1)" gradientUnits="userSpaceOnUse"><stop offset="0" stop-color="#8bda94"/><stop offset=".212" stop-color="#7ed09e"/><stop offset=".602" stop-color="#5cb6b9"/><stop offset="1" stop-color="#3498db"/></linearGradient></defs><path class="cls-1" d="M9.94,28.12c5.26,9.25,10.51,18.48,15.87,27.91h-9.96C10.62,46.81,5.31,37.47,0,28.12,5.34,18.68,10.62,9.36,15.92,0h9.96c-5.36,9.46-10.61,18.72-15.93,28.12,0,0-.01,0-.01,0ZM55.79,6.66c-1.02,0-1.91.36-2.68,1.07-.77.71-1.16,1.6-1.16,2.65v14.03h-19.46v-14.03c0-1.06-.37-1.94-1.13-2.65-.75-.71-1.62-1.07-2.59-1.07-1.14,0-2.08.36-2.81,1.07-.73.71-1.1,1.6-1.1,2.65v35.27c0,1.06.35,1.94,1.04,2.65.69.71,1.61,1.07,2.75,1.07,1.02,0,1.91-.35,2.68-1.07.77-.71,1.16-1.6,1.16-2.65v-14.22h19.46v14.22c0,1.06.37,1.94,1.13,2.65.75.71,1.62,1.07,2.59,1.07,1.18,0,2.13-.35,2.84-1.07.71-.71,1.07-1.6,1.07-2.65V10.38c0-1.06-.35-1.94-1.04-2.65s-1.61-1.07-2.75-1.07ZM95.92,44.04c1.46-1.91,2.2-4.19,2.2-6.83,0-2.07-.31-3.83-.92-5.28l.02.02c-.61-1.44-1.52-2.64-2.75-3.6-1.22-.96-2.76-1.74-4.61-2.35s-4-1.14-6.44-1.59c-1.87-.36-3.48-.78-4.82-1.25s-2.37-1.1-3.08-1.89c-.71-.79-1.07-1.8-1.07-3.02,0-1.02.31-1.91.92-2.68s1.51-1.38,2.72-1.83c1.2-.45,2.67-.67,4.42-.67,1.06,0,2.2.17,3.42.52s2.38.77,3.48,1.28c1.1.51,1.97,1.05,2.62,1.62.49.36,1.04.55,1.65.55.93,0,1.75-.37,2.44-1.1s1.04-1.54,1.04-2.44c0-1.22-.59-2.3-1.77-3.23-1.43-1.22-3.26-2.23-5.52-3.02-2.26-.79-4.71-1.19-7.35-1.19-2.81,0-5.37.49-7.69,1.46s-4.16,2.4-5.52,4.27c-1.36,1.87-2.05,4.13-2.05,6.77,0,1.75.29,3.33.85,4.73.57,1.4,1.42,2.62,2.53,3.66,1.12,1.04,2.51,1.89,4.18,2.56s3.6,1.17,5.8,1.49c2.32.33,4.23.78,5.73,1.37s2.62,1.31,3.35,2.16c.73.85,1.1,1.89,1.1,3.11,0,1.02-.39,1.92-1.16,2.72-.77.79-1.79,1.43-3.05,1.89-1.26.47-2.64.7-4.15.7-2.24,0-4.12-.33-5.64-.98-1.53-.65-3.06-1.61-4.61-2.87-.61-.49-1.3-.73-2.08-.73-1.02,0-1.86.36-2.53,1.07s-1.01,1.54-1.01,2.47c0,.57.14,1.14.43,1.71s.69,1.08,1.22,1.52c2.07,1.79,4.25,3.04,6.53,3.75s4.84,1.07,7.69,1.07,5.34-.51,7.72-1.53,4.3-2.48,5.76-4.39ZM104.32,0h-9.96c5.36,9.46,10.61,18.72,15.93,28.12-5.26,9.25-10.51,18.48-15.87,27.91h9.96c5.24-9.22,10.55-18.57,15.86-27.91-5.34-9.44-10.62-18.76-15.92-28.12Z"/></svg>